<svg xmlns="http://www.w3.org/2000/svg" viewBox="0 0 390 390">
  <rect x="15" y="135" width="360" height="120" fill="none" stroke="#1C1917" stroke-width="30" stroke-linecap="square" stroke-miterlimit="10"/>
  <line x1="255" y1="15" x2="255" y2="375" stroke="#1C1917" stroke-width="30" stroke-linecap="square" stroke-miterlimit="10"/>
  <line x1="135" y1="15" x2="135" y2="375" stroke="#1C1917" stroke-width="30" stroke-linecap="square" stroke-miterlimit="10"/>
  <line x1="195" y1="15" x2="195" y2="135" stroke="#1C1917" stroke-width="30" stroke-linecap="square" stroke-miterlimit="10"/>
  <line x1="195" y1="255" x2="195" y2="375" stroke="#1C1917" stroke-width="30" stroke-linecap="square" stroke-miterlimit="10"/>
  <line x1="75" y1="135" x2="75" y2="255" stroke="#1C1917" stroke-width="30" stroke-linecap="square" stroke-miterlimit="10"/>
  <line x1="315" y1="135" x2="315" y2="255" stroke="#1C1917" stroke-width="30" stroke-linecap="square" stroke-miterlimit="10"/>
  <line x1="135" y1="195" x2="255" y2="195" stroke="#1C1917" stroke-width="30" stroke-linecap="square" stroke-miterlimit="10"/>
  <line x1="255" y1="15" x2="375" y2="15" stroke="#1C1917" stroke-width="30" stroke-linecap="square" stroke-miterlimit="10"/>
  <line x1="255" y1="75" x2="360" y2="75" stroke="#1C1917" stroke-width="30" stroke-miterlimit="10"/>
  <line x1="135" y1="15" x2="15" y2="15" stroke="#1C1917" stroke-width="30" stroke-linecap="square" stroke-miterlimit="10"/>
  <line x1="30" y1="75" x2="135" y2="75" stroke="#1C1917" stroke-width="30" stroke-miterlimit="10"/>
  <line x1="135" y1="375" x2="15" y2="375" stroke="#1C1917" stroke-width="30" stroke-linecap="square" stroke-miterlimit="10"/>
  <line x1="135" y1="315" x2="30" y2="315" stroke="#1C1917" stroke-width="30" stroke-miterlimit="10"/>
  <line x1="255" y1="375" x2="375" y2="375" stroke="#1C1917" stroke-width="30" stroke-linecap="square" stroke-miterlimit="10"/>
  <line x1="255" y1="315" x2="360" y2="315" stroke="#1C1917" stroke-width="30" stroke-miterlimit="10"/>
</svg>
